<svg preserveAspectRatio="none" overflow="visible" style="display: block;" width="1376" height="129" viewBox="0 0 1376 129" fill="none" xmlns="http://www.w3.org/2000/svg">
<g id="decorator">
<path d="M55.3366 27.6429V46.0714H46.1138V64.5H36.891V46.0714H46.1138V27.6429H55.3366V9.21429H64.5593V0H73.7821V27.6429H83.0049V46.0714H92.2276V64.5H101.45V92.1429H110.673V110.571H119.896V119.786H129.119V129H83.0049V119.786H92.2276V82.9286H83.0049V73.7143H73.7821V55.2857H64.5593V27.6429H55.3366ZM27.6683 73.7143H36.891V92.1429H27.6683V119.786H36.891V129H0V119.786H9.22276V110.571H18.4455V92.1429H27.6683V73.7143Z" fill="#E6E6E6"/>
<path d="M154.978 64.5H164.201V119.786H173.424V129H136.533V119.786H145.756V9.21429H136.533V0H164.201V55.2857H154.978V64.5ZM201.092 119.786V55.2857H173.424V46.0714H182.647V36.8571H201.092V46.0714H219.538V119.786H237.983V129H191.869V119.786H201.092ZM164.201 55.2857H173.424V64.5H164.201V55.2857Z" fill="#E6E6E6"/>
<path d="M236.067 129V119.786H254.512V55.2857H245.289V46.0714H291.403V36.8571H300.626V46.0714H319.072V55.2857H328.294V46.0714H346.74V36.8571H365.185V46.0714H374.408V119.786H392.854V129H346.74V119.786H355.963V55.2857H328.294V119.786H337.517V129H291.403V119.786H309.849V64.5H300.626V55.2857H272.958V119.786H282.18V129H236.067Z" fill="#E6E6E6"/>
<path d="M473.942 82.9286H409.383V92.1429H418.605V110.571H427.828V119.786H455.496V129H409.383V119.786H400.16V101.357H390.937V73.7143H400.16V55.2857H409.383V46.0714H418.605V55.2857H409.383V73.7143H455.496V55.2857H446.274V46.0714H427.828V36.8571H446.274V46.0714H455.496V55.2857H464.719V73.7143H473.942V82.9286ZM464.719 119.786H455.496V110.571H464.719V119.786Z" fill="#E6E6E6"/>
<path d="M527.47 110.571H536.693V9.21429H527.47V0H555.138V119.786H564.361V129H536.693V119.786H527.47V129H490.579V119.786H481.356V101.357H472.133V82.9286H481.356V55.2857H490.579V46.0714H509.024V36.8571H527.47V46.0714H509.024V55.2857H499.802V64.5H490.579V101.357H499.802V110.571H509.024V119.786H527.47V110.571Z" fill="#E6E6E6"/>
<path d="M671.309 27.6429V46.0714H662.086V64.5H652.864V46.0714H662.086V27.6429H671.309V9.21429H680.532V0H689.755V27.6429H698.977V46.0714H708.2V64.5H717.423V92.1429H726.646V110.571H735.868V119.786H745.091V129H698.977V119.786H708.2V82.9286H698.977V73.7143H689.755V55.2857H680.532V27.6429H671.309ZM643.641 73.7143H652.864V92.1429H643.641V119.786H652.864V129H615.972V119.786H625.195V110.571H634.418V92.1429H643.641V73.7143Z" fill="#E6E6E6"/>
<path d="M752.505 110.571H780.174V129H752.505V110.571Z" fill="#E6E6E6"/>
<path d="M887.158 27.6429V46.0714H877.935V64.5H868.712V46.0714H877.935V27.6429H887.158V9.21429H896.38V0H905.603V27.6429H914.826V46.0714H924.049V64.5H933.271V92.1429H942.494V110.571H951.717V119.786H960.94V129H914.826V119.786H924.049V82.9286H914.826V73.7143H905.603V55.2857H896.38V27.6429H887.158ZM859.489 73.7143H868.712V92.1429H859.489V119.786H868.712V129H831.821V119.786H841.044V110.571H850.267V92.1429H859.489V73.7143Z" fill="#E6E6E6"/>
<path d="M977.577 55.2857V64.5H968.354V46.0714H996.022V55.2857H977.577ZM1005.25 55.2857H1023.69V46.0714H1032.91V55.2857H1023.69V73.7143H1014.47V82.9286H1005.25V101.357H996.022V110.571H986.8V119.786H1023.69V110.571H1032.91V92.1429H1042.14V110.571H1032.91V129H968.354V110.571H977.577V101.357H986.8V82.9286H996.022V73.7143H1005.25V55.2857Z" fill="#E6E6E6"/>
<path d="M1114.11 119.786V129H1068V119.786H1049.55V92.1429H1040.33V82.9286H1049.55V55.2857H1058.77V46.0714H1077.22V36.8571H1095.66V46.0714H1114.11V55.2857H1123.33V64.5H1132.56V101.357H1123.33V119.786H1114.11ZM1068 119.786H1104.89V101.357H1114.11V82.9286H1104.89V55.2857H1095.66V46.0714H1077.22V55.2857H1068V64.5H1058.77V101.357H1068V119.786Z" fill="#E6E6E6"/>
<path d="M1195.27 119.786V129H1158.38V119.786H1149.16V55.2857H1139.93V46.0714H1167.6V119.786H1195.27V110.571H1204.49V55.2857H1195.27V46.0714H1222.94V119.786H1232.16V129H1204.49V119.786H1195.27Z" fill="#E6E6E6"/>
<path d="M1257.91 55.2857V64.5H1248.69V46.0714H1276.36V55.2857H1257.91ZM1285.58 55.2857H1304.03V46.0714H1313.25V55.2857H1304.03V73.7143H1294.8V82.9286H1285.58V101.357H1276.36V110.571H1267.14V119.786H1304.03V110.571H1313.25V92.1429H1322.47V110.571H1313.25V129H1248.69V110.571H1257.91V101.357H1267.14V82.9286H1276.36V73.7143H1285.58V55.2857Z" fill="#E6E6E6"/>
<path d="M1339.11 18.4286V0H1357.55V18.4286H1339.11ZM1376 119.786V129H1329.89V119.786H1339.11V55.2857H1329.89V46.0714H1357.55V119.786H1376Z" fill="#E6E6E6"/>
</g>
</svg>
